<svg version="1.0" xmlns="http://www.w3.org/2000/svg" width="682.667" height="682.667" viewBox="150 120 250 250">
<g fill="#fff" stroke="#fff" stroke-width="5"><path d="M259.5 156.1c-5.7.8-16 3.8-15.3 4.4.2.2 4.6-.5 9.8-1.6 21.3-4.2 42-.7 60.2 10.1 10.2 6.1 23.7 19.5 31.5 31.3 6.8 10.2 9 12.6 7.3 8.2-3.5-9.1-17.6-26.2-29.1-35-18.8-14.6-41.6-20.7-64.4-17.4m-54.8 19.3c-9.5 9.4-15.6 18-21.1 29.7-6.9 14.5-9 23.9-9.1 39.4 0 10.9.4 14.2 2.3 20.5 8.5 26.9 29.4 49.4 57 61.2 8.7 3.8 16.6 5.7 27.4 6.7 10.5 1 12.8.6 12.8-2 0-2.5-2.7-3.5-12-4.2-21.4-1.8-41.7-11.4-57.6-27.3-24-24-31.5-52.8-21.8-83.6 4.7-15.1 11.7-26.8 24.5-41.1 3.3-3.7 5.8-6.7 5.5-6.7-.2 0-3.8 3.3-7.9 7.4"/>
<path d="M310 173.4c0 .3 2.6 2.3 5.8 4.5 12.2 8.4 24.2 23.2 32.4 39.8 2.2 4.6 4.3 8.5 4.7 8.8.5.2 1.6-.1 2.5-.8 1.7-1.2 1.7-1.6.2-5-3-7.3-14.8-23.6-21.9-30.4-4-3.7-10.3-8.9-14.2-11.4-8.9-5.8-9.5-6.1-9.5-5.5m-35 2.6c.8.5 2.4 1 3.6 1 3.2 0 15.8 4.5 22.5 8.1 7.9 4.2 18.5 14.1 24.5 22.9 2.6 3.8 4.9 6.8 5.2 6.5 1-1-9.4-14.8-15.7-20.8-8.1-7.6-16.9-12.8-26.6-15.5-8.4-2.4-15.7-3.6-13.5-2.2m-26 8.6c-19.6 5.2-35.9 21.3-42.6 42.2-1.7 5.3-3.1 27.6-1.8 28.5.5.2 1-3.6 1.2-8.7.6-19.1 6-32.4 18.2-44.6 11.6-11.6 24.3-17 40.2-17 4.5 0 7.8-.4 7.8-1 0-1.5-16.6-1.1-23 .6"/>
<path d="M298 190.4c0 .2 1.9 1.5 4.3 2.9 5.4 3.2 14.5 12.6 19.1 19.7 4.6 7 4.7 5.5.1-2-4-6.6-13.7-16.1-19.6-19-2.1-1.1-3.9-1.8-3.9-1.6m-45.3 27.1c-18 6.8-26.8 28.6-18.4 45.1 4.5 8.9 16.3 17.4 24 17.4 3.6 0 1.2-3.2-3.9-5.1-19.2-7.2-25.2-29.9-11.8-44.8 6.9-7.7 11.1-9.6 21.4-9.6 7.6 0 9.1.3 13.9 3 6.2 3.4 11.3 9 13.8 15.1 1.9 4.6 5 6.4 3.7 2.1-2.9-9.4-8.8-17-16.5-21.2-4.6-2.4-6.7-2.9-13.9-3.2q-8.55-.3-12.3 1.2"/>
<path d="M257.7 241.8c-3.8 4-3.7 9.3.2 13.3 1.9 1.8 4 2.9 5.8 2.9 3.6 0 8.9-3.2 9.8-5.9.6-2 1.3-2.1 21.4-2.1 14.8 0 21 .3 21.9 1.2 1.6 1.6 1.5 9.8-.3 18.1-4.1 19.6-20.9 37.1-40.5 42.3-3.6 1-7 2.3-7.6 3.1-.6.7-3.3 1.4-6 1.4-4.5.2-4.4.2 2.1 1 5.9.7 8.1.5 14-1.2 25.6-7.6 44.5-32.4 44.5-58.7 0-5.9-.3-6.6-3.1-9.3l-3.1-2.9h-42.6l-3-3c-4.2-4.1-9.7-4.2-13.5-.2m10.7 2.3c3.4 2.6 3.4 6.2 0 8.8-3.2 2.5-5.2 2.6-8.2.5-2.8-1.9-2.9-6.7-.2-9.4 2.6-2.6 5.1-2.5 8.4.1m67 .5c.3.9.7 5.5.7 10.2.1 9.6 1.6 7.2 1.8-3 .1-6.1-.5-8.8-2.1-8.8-.6 0-.7.7-.4 1.6m32.1 4.1c3.2 7.6 3.5 9.3 2.1 12.7-1 2.3-3.2 4.4-7.4 7-3.4 2-7.9 5.7-10 8.1-3.9 4.5-10.6 19.1-9.2 20 .9.5 6-5.6 10.3-12.3 2.7-4.1 6.2-7 14.7-12.2 2.3-1.4 5-3.9 6.1-5.6 3.5-5.7 1.8-15.8-3-18.4-3-1.5-4.4-1.3-3.6.7"/>
<path d="M294.6 258.1c-1.4 8.9-7.4 17.5-15.9 23-6.6 4.3-6.8 5-.6 1.9 5.4-2.8 11.5-8.5 14.4-13.4 3.2-5.5 5.8-15.6 4-15.6-.7 0-1.5 1.8-1.9 4.1m-1.5 59.9c-3 1.6-8.3 3.7-11.8 4.7-6.6 1.9-8.7 3.7-3 2.6 5.3-1 15.4-5 19.4-7.7 5-3.4 2.2-3.1-4.6.4"/>
</g>
</svg>